<?xml version="1.0" encoding="utf-8"?>
<!-- Generator: Adobe Illustrator 15.0.0, SVG Export Plug-In . SVG Version: 6.00 Build 0)  -->
<!DOCTYPE svg PUBLIC "-//W3C//DTD SVG 1.1//EN" "http://www.w3.org/Graphics/SVG/1.1/DTD/svg11.dtd">
<svg version="1.1" id="Ebene_1" xmlns="http://www.w3.org/2000/svg" xmlns:xlink="http://www.w3.org/1999/xlink" x="0px" y="0px"
	 width="49.033px" height="49.241px" viewBox="0 0 49.033 49.241" enable-background="new 0 0 49.033 49.241" xml:space="preserve">
<path fill="#FECC04" d="M31.523,1.371c-0.268,1.659-0.41,4.015-0.385,4.27c0.405-0.546,0.684-0.563,1.18-1.329
	c0,0-2.313,7.529-4.112,15.347c8.393-0.436,16.334-0.479,20.395-0.264c-1.629-9.184-8.088-15.714-16.88-18.357L31.523,1.371z
	 M20.667,20.158c-6.89,0.563-13.522,1.015-17.726,2.242c0.545,0.782,0.817,0.803,1.276,1.289c-0.517,0.303-1.116,0.52-1.737,0.986
	c0.135,0.251,1.733,1.613,1.457,1.934c-0.883,1.026-1.361,1.055-1.923,1.78c0.278,0.315,0.89,0.901,0.97,1.031
	c-0.265,0.3-0.707,0.751-0.707,0.751s8.963-0.863,16.625-1.825c-1.285,6.428-2.053,13.325-2.176,17.381
	c0.913-0.339,1.018-0.597,1.623-0.927c0.129,0.577,0.149,1.208,0.399,1.926c0.284-0.071,1.716-0.393,1.934-0.049
	c0.706,1.105,0.584,1.576,1.103,2.297c0.386-0.193,1.134-0.643,1.283-0.693c0.203,0.33,0.496,0.868,0.496,0.868
	s1.301-12.961,2.741-20.631l0.204-1.06c8.172-0.719,18.939-0.891,18.939-0.891c-0.851-0.242-0.935-0.511-1.555-0.734
	c0.237-0.103,2.521-0.7,4.168-0.955c0.354-0.056,0.674-0.102,0.971-0.139c-0.51,13.147-11.139,24.501-24.414,24.501
	C11.023,49.241,0,38.218,0,24.621S11.023,0,24.619,0c0.621,0,1.236,0.023,1.844,0.068C25.061,4.406,22.604,11.712,20.667,20.158"/>
</svg>
